<?xml version="1.0" encoding="iso-8859-1"?>
<!-- Uploaded to: SVG Repo, www.svgrepo.com, Generator: SVG Repo Mixer Tools -->
<svg height="800px" width="800px" version="1.1" id="Capa_1" xmlns="http://www.w3.org/2000/svg" xmlns:xlink="http://www.w3.org/1999/xlink" 
	 viewBox="0 0 199.2 199.2" xml:space="preserve">
<g>
	<path style="fill:#030104;" d="M173.811,119.9c-1.7-4.2-5.8-6.9-10.3-6.9h-22V11.1c0-6.1-4.9-11.1-11.1-11.1h-61.2
		c-6.1,0-11.1,4.9-11.1,11.1V113h-22.4c-4.5,0-8.5,2.7-10.3,6.9c-1.7,4.2-0.8,8.9,2.4,12.1l63.9,63.9c2.2,2.2,5,3.3,7.9,3.3
		c2.8,0,5.7-1.1,7.9-3.3l63.9-63.9C174.511,128.8,175.511,124,173.811,119.9z"/>
</g>
</svg>